<svg width="32" height="32" viewBox="0 0 32 32" fill="none" xmlns="http://www.w3.org/2000/svg">
<path fill-rule="evenodd" clip-rule="evenodd" d="M13.7236 3.55279C13.893 3.214 14.2393 3 14.618 3H17.382C17.7607 3 18.107 3.214 18.2764 3.55279L19.0516 5.10328C19.1738 5.34761 19.3914 5.52913 19.6491 5.61972C20.0974 5.77733 20.5325 5.96316 20.9521 6.17508C21.2025 6.30155 21.4926 6.33089 21.7588 6.24217L23.6563 5.60965C24.0157 5.48987 24.4118 5.5834 24.6797 5.85123L26.6341 7.80562C26.9019 8.07346 26.9954 8.46962 26.8756 8.82896L26.1333 11.0561C26.0532 11.2963 26.0691 11.5572 26.1661 11.7911C26.2424 11.9752 26.3138 12.1619 26.3803 12.3509C26.4709 12.6086 26.6524 12.8262 26.8967 12.9484L28.4472 13.7236C28.786 13.893 29 14.2393 29 14.618V17.382C29 17.7607 28.786 18.107 28.4472 18.2764L26.8967 19.0516C26.6524 19.1738 26.4709 19.3914 26.3803 19.6491C26.1544 20.2915 25.8706 20.9067 25.5352 21.4883C25.3847 21.7491 25.3438 22.061 25.439 22.3466L25.8756 23.6563C25.9954 24.0157 25.9019 24.4118 25.6341 24.6797L23.6797 26.6341C23.4118 26.9019 23.0157 26.9954 22.6563 26.8756L20.7112 26.2272C20.4782 26.1496 20.2254 26.1622 19.9966 26.2514C19.8817 26.2963 19.7658 26.3392 19.6491 26.3803C19.3914 26.4709 19.1738 26.6524 19.0516 26.8967L18.2764 28.4472C18.107 28.786 17.7607 29 17.382 29H14.618C14.2393 29 13.893 28.786 13.7236 28.4472L12.9484 26.8967C12.8262 26.6524 12.6086 26.4709 12.3509 26.3803C12.0259 26.266 11.7079 26.1369 11.3977 25.9938C11.1547 25.8818 10.8785 25.8591 10.6247 25.9437L7.82896 26.8756C7.46962 26.9954 7.07346 26.9019 6.80562 26.6341L4.85123 24.6797C4.5834 24.4118 4.48987 24.0157 4.60965 23.6563L5.67629 20.4564C5.75135 20.2312 5.74217 19.9873 5.66096 19.7643C5.647 19.726 5.63326 19.6876 5.61972 19.6491C5.52913 19.3914 5.34761 19.1738 5.10328 19.0516L3.55279 18.2764C3.214 18.107 3 17.7607 3 17.382V14.618C3 14.2393 3.214 13.893 3.55279 13.7236L5.15469 12.9227C5.36618 12.8169 5.52373 12.6282 5.60098 12.4047V12.4047C5.66597 12.2167 5.67099 12.013 5.60809 11.8243L4.60965 8.82896C4.48987 8.46962 4.5834 8.07346 4.85123 7.80562L6.80562 5.85123C7.07346 5.5834 7.46962 5.48987 7.82896 5.60965L10.0399 6.34663C10.3126 6.43754 10.6101 6.40443 10.8642 6.27002C11.3402 6.01828 11.8368 5.80045 12.3509 5.61972C12.6086 5.52913 12.8262 5.34761 12.9484 5.10328L13.7236 3.55279ZM9.58246 16C9.58246 19.5443 12.4557 22.4175 16 22.4175C19.5443 22.4175 22.4175 19.5443 22.4175 16C22.4175 12.4557 19.5443 9.58246 16 9.58246C12.4557 9.58246 9.58246 12.4557 9.58246 16Z" fill="black"/>
</svg>
